<svg xmlns="http://www.w3.org/2000/svg" viewBox="0 0 24 20">
  <path d="M12 8c-2.2 0-4 1.8-4 4s1.8 4 4 4 4-1.8 4-4-1.8-4-4-4zm0 6c-1.1 0-2-.9-2-2s.9-2 2-2 2 .9 2 2-.9 2-2 2z" fill="white"/>
  <path d="M13.6 4.2l.4 2c.1.3.4.5.7.5.2 0 .4-.1.5-.2l1.7-1.1c.7.4 1.3.9 1.8 1.5l-.6 1.9c-.1.3 0 .6.2.8.2.1.3.2.5.2l2 .2c.1.8.1 1.6 0 2.4l-2 .2c-.3 0-.6.3-.7.6 0 .2 0 .4.1.6l.6 1.9c-.5.6-1.1 1.2-1.8 1.6l-1.7-1.1c-.3-.2-.6-.2-.9 0-.2.1-.3.3-.3.5l-.4 2c-.8.2-1.6.2-2.4 0l-.4-2c-.1-.3-.4-.5-.7-.5-.2 0-.4.1-.5.2l-1.7 1.1c-.7-.4-1.3-.9-1.8-1.5l.6-1.9c.1-.3 0-.6-.2-.8-.2-.1-.3-.2-.5-.2l-2-.2c-.1-.8-.1-1.6 0-2.4l2-.2c.3 0 .6-.3.7-.6 0-.2 0-.4-.1-.6l-.6-1.9c.5-.6 1.1-1.2 1.8-1.6l1.7 1.1c.3.2.6.2.9 0 .2-.1.3-.3.3-.5l.4-2c.8-.2 1.6-.2 2.4 0zM12 16c2.2 0 4-1.8 4-4s-1.8-4-4-4-4 1.8-4 4 1.8 4 4 4z" fill="white"/>
</svg>
